<svg width="32" height="33" viewBox="0 0 32 33" fill="none" xmlns="http://www.w3.org/2000/svg">
<path d="M4 15.0957V4.0957H15V15.0957H4ZM6 13.0957H13V6.0957H6V13.0957ZM4 28.0957V17.0957H15V28.0957H4ZM6 26.0957H13V19.0957H6V26.0957ZM17 15.0957V4.0957H28V15.0957H17ZM19 13.0957H26V6.0957H19V13.0957ZM25.2667 28.0957V25.3624H28V28.0957H25.2667ZM17 19.8624V17.0957H19.7333V19.8624H17ZM19.7333 22.5957V19.8624H22.5V22.5957H19.7333ZM17 25.3624V22.5957H19.7333V25.3624H17ZM19.7333 28.0957V25.3624H22.5V28.0957H19.7333ZM22.5 25.3624V22.5957H25.2667V25.3624H22.5ZM22.5 19.8624V17.0957H25.2667V19.8624H22.5ZM25.2667 22.5957V19.8624H28V22.5957H25.2667Z" fill="white"/>
</svg>
