<svg width="37" height="37" viewBox="0 0 37 37" fill="none" xmlns="http://www.w3.org/2000/svg">
<path d="M8.52612 19.8949C8.02967 19.8949 7.60645 19.7181 7.25645 19.3646C6.90645 19.0111 6.73145 18.5861 6.73145 18.0896C6.73145 17.5931 6.90822 17.1699 7.26177 16.8199C7.6153 16.4699 8.0403 16.2949 8.53677 16.2949C9.03322 16.2949 9.45645 16.4717 9.80645 16.8252C10.1564 17.1788 10.3314 17.6038 10.3314 18.1002C10.3314 18.5967 10.1547 19.0199 9.80112 19.3699C9.4476 19.7199 9.0226 19.8949 8.52612 19.8949ZM18.7261 19.8949C18.2297 19.8949 17.8064 19.7181 17.4564 19.3646C17.1064 19.0111 16.9314 18.5861 16.9314 18.0896C16.9314 17.5931 17.1082 17.1699 17.4618 16.8199C17.8153 16.4699 18.2403 16.2949 18.7368 16.2949C19.2332 16.2949 19.6564 16.4717 20.0064 16.8252C20.3564 17.1788 20.5314 17.6038 20.5314 18.1002C20.5314 18.5967 20.3547 19.0199 20.0011 19.3699C19.6476 19.7199 19.2226 19.8949 18.7261 19.8949ZM28.9261 19.8949C28.4297 19.8949 28.0064 19.7181 27.6564 19.3646C27.3064 19.0111 27.1314 18.5861 27.1314 18.0896C27.1314 17.5931 27.3082 17.1699 27.6618 16.8199C28.0153 16.4699 28.4403 16.2949 28.9368 16.2949C29.4332 16.2949 29.8564 16.4717 30.2064 16.8252C30.5564 17.1788 30.7314 17.6038 30.7314 18.1002C30.7314 18.5967 30.5547 19.0199 30.2011 19.3699C29.8476 19.7199 29.4226 19.8949 28.9261 19.8949Z" fill="#FAFAFA"/>
</svg>
