<svg width="159" height="25" viewBox="0 0 159 25" fill="none" xmlns="http://www.w3.org/2000/svg">
<g opacity="0.9">
<path d="M36.7086 0.925925C36.7086 2.46914 36.7086 4.01235 36.7086 5.55556C36.7086 7.09877 36.7086 8.64197 36.7086 10.1852C36.7086 11.7284 36.7086 13.2716 36.7086 14.8148C36.7086 16.358 36.7086 17.9012 36.7086 19.4444C36.7086 20.9877 36.7086 22.5309 36.7086 24.0741H24.9801C24.9801 21.9342 24.9801 19.7942 24.9801 17.6543C24.9801 15.5144 24.9801 13.3745 24.9801 11.2346C24.9801 11.214 24.97 11.2037 24.9497 11.2037C24.9497 11.2037 24.9395 11.2037 24.9192 11.2037C24.9192 11.2037 24.9192 11.214 24.9192 11.2346L21.9338 24.0741H14.1656C13.6578 21.9342 13.1603 19.8045 12.6728 17.6852C12.1854 15.5658 11.6879 13.4465 11.1801 11.3272C11.1801 11.3066 11.17 11.2963 11.1497 11.2963C11.1497 11.2963 11.1395 11.2963 11.1192 11.2963C11.1192 11.2963 11.1192 11.3066 11.1192 11.3272C11.1192 13.4465 11.1192 15.5658 11.1192 17.6852C11.1192 19.8045 11.1192 21.9342 11.1192 24.0741H0C0 22.5309 0 20.9877 0 19.4444C0 17.8807 0 16.3272 0 14.7839C0 13.2202 0 11.6667 0 10.1235C0 8.55967 0 7.00617 0 5.46296C0 4.70165 0 3.95062 0 3.20988C0 2.44856 0 1.68724 0 0.925925H16.2371C16.5417 2.20165 16.8362 3.47737 17.1205 4.75309C17.4049 6.00823 17.6892 7.27366 17.9735 8.54938C18.2781 9.8251 18.5726 11.1008 18.857 12.3765C18.857 12.3971 18.857 12.4177 18.857 12.4383C18.8773 12.4383 18.8874 12.4383 18.8874 12.4383C18.9077 12.4177 18.9179 12.3971 18.9179 12.3765L21.355 0.925925H36.7086Z" fill="#FAFAFA"/>
<path d="M65.0433 0.925925L55.4168 14.8148C55.4168 14.8148 55.4168 14.8251 55.4168 14.8457C55.4371 14.8457 55.4473 14.8457 55.4473 14.8457H64.3122V24.0741H36.9254L47.4963 10.1543C47.4963 10.1337 47.4963 10.1235 47.4963 10.1235C47.4963 10.1235 47.4861 10.1235 47.4658 10.1235H37.8089V0.925925H65.0433Z" fill="#FAFAFA"/>
<path d="M86.9128 17.7397V24.0741H65.2944V18.8103C65.676 18.7657 66.1162 18.7136 66.6152 18.6542C67.1143 18.5798 67.6426 18.498 68.2003 18.4088C68.7727 18.3196 69.3597 18.2229 69.9615 18.1189C70.5632 17.9999 71.1576 17.8735 71.7447 17.7397C73.4325 17.7397 75.1203 17.7397 76.8081 17.7397C78.4958 17.7397 80.1763 17.7397 81.8494 17.7397C83.5372 17.7397 85.225 17.7397 86.9128 17.7397ZM70.754 17.9627C71.5759 17.7694 72.4345 17.5612 73.3297 17.3382C74.2397 17.1003 75.0836 16.8326 75.8614 16.5353C76.654 16.2379 77.2924 15.9107 77.7767 15.5539C78.2757 15.1821 78.5252 14.7732 78.5252 14.3271C78.5252 13.9703 78.4078 13.6729 78.173 13.435C77.9528 13.1971 77.6593 13.0261 77.2924 12.922C76.9401 12.803 76.5659 12.7435 76.1696 12.7435C75.7587 12.7435 75.3624 12.803 74.9808 12.922C74.5993 13.0409 74.2837 13.2194 74.0342 13.4573C73.7994 13.6952 73.682 13.9851 73.682 14.3271C73.682 14.7286 73.8581 15.1301 74.2103 15.5316C74.5626 15.9182 75.1863 16.2453 76.0816 16.5129L64.9862 14.5948C64.8688 13.5391 64.9935 12.5948 65.3604 11.7622C65.742 10.9146 66.307 10.1711 67.0555 9.53173C67.804 8.89234 68.6773 8.36448 69.6753 7.94813C70.688 7.53179 71.7667 7.21953 72.9115 7.01136C74.0709 6.78831 75.245 6.67679 76.4338 6.67679C77.7694 6.67679 79.0609 6.80318 80.3084 7.05597C81.5559 7.29388 82.6713 7.65818 83.6546 8.14887C84.6526 8.62469 85.4378 9.22691 86.0102 9.95551C86.5973 10.6841 86.8908 11.5317 86.8908 12.4982C86.8908 13.7918 86.3331 14.855 85.2177 15.6877C84.1169 16.5204 82.3778 17.1226 80.0002 17.4943C77.6226 17.8661 74.5405 18.0222 70.754 17.9627Z" fill="#FAFAFA"/>
<path d="M124.573 0.925925C124.573 2.46914 124.573 4.01235 124.573 5.55556C124.573 7.09877 124.573 8.64197 124.573 10.1852C124.573 11.7284 124.573 13.2716 124.573 14.8148C124.573 16.358 124.573 17.9012 124.573 19.4444C124.573 20.9877 124.573 22.5309 124.573 24.0741H112.844C112.844 21.9342 112.844 19.7942 112.844 17.6543C112.844 15.5144 112.844 13.3745 112.844 11.2346C112.844 11.214 112.834 11.2037 112.814 11.2037C112.814 11.2037 112.803 11.2037 112.783 11.2037C112.783 11.2037 112.783 11.214 112.783 11.2346L109.798 24.0741H102.03C101.522 21.9342 101.024 19.8045 100.537 17.6852C100.049 15.5658 99.5518 13.4465 99.0441 11.3272C99.0441 11.3066 99.034 11.2963 99.0136 11.2963C99.0136 11.2963 99.0035 11.2963 98.9832 11.2963C98.9832 11.2963 98.9832 11.3066 98.9832 11.3272C98.9832 13.4465 98.9832 15.5658 98.9832 17.6852C98.9832 19.8045 98.9832 21.9342 98.9832 24.0741H87.864C87.864 22.5309 87.864 20.9877 87.864 19.4444C87.864 17.8807 87.864 16.3272 87.864 14.7839C87.864 13.2202 87.864 11.6667 87.864 10.1235C87.864 8.55967 87.864 7.00617 87.864 5.46296C87.864 4.70165 87.864 3.95062 87.864 3.20988C87.864 2.44856 87.864 1.68724 87.864 0.925925H104.101C104.406 2.20165 104.7 3.47737 104.985 4.75309C105.269 6.00823 105.553 7.27366 105.837 8.54938C106.142 9.8251 106.437 11.1008 106.721 12.3765C106.721 12.3971 106.721 12.4177 106.721 12.4383C106.741 12.4383 106.751 12.4383 106.751 12.4383C106.772 12.4177 106.782 12.3971 106.782 12.3765L109.219 0.925925H124.573Z" fill="#FAFAFA"/>
<path d="M142.245 0C140.377 0 138.66 0.144033 137.097 0.432099C135.553 0.699589 134.162 1.10082 132.923 1.6358C131.684 2.15021 130.598 2.77778 129.664 3.51852C128.75 4.23868 127.978 5.06173 127.348 5.98765C126.739 6.91358 126.272 7.92181 125.947 9.01235C125.642 10.1029 125.49 11.2551 125.49 12.4691C125.49 13.3951 125.581 14.3107 125.764 15.216C125.967 16.1214 126.272 16.9856 126.678 17.8086C127.105 18.6317 127.633 19.4136 128.262 20.1543C128.912 20.8745 129.674 21.5329 130.547 22.1296C131.441 22.7263 132.466 23.2407 133.624 23.6728C134.781 24.0844 136.071 24.4033 137.493 24.6296C138.935 24.8765 140.519 25 142.245 25C144.662 25 146.784 24.7737 148.612 24.321C150.46 23.8889 152.044 23.2819 153.364 22.5C154.684 21.6975 155.761 20.7716 156.593 19.7222C157.426 18.6523 158.035 17.5103 158.421 16.2963C158.807 15.0617 159 13.786 159 12.4691C159 10.0412 158.381 7.89095 157.142 6.01852C155.903 4.14609 154.045 2.6749 151.567 1.60494C149.089 0.534979 145.982 0 142.245 0ZM142.275 9.81482C142.986 9.81482 143.585 9.89712 144.073 10.0617C144.56 10.2263 144.946 10.4424 145.23 10.7099C145.515 10.9568 145.718 11.2346 145.84 11.5432C145.982 11.8519 146.053 12.1605 146.053 12.4691C146.053 12.7366 146.012 13.0041 145.931 13.2716C145.85 13.5185 145.708 13.7654 145.505 14.0123C145.322 14.2387 145.078 14.4444 144.773 14.6296C144.489 14.7942 144.134 14.928 143.707 15.0309C143.301 15.1337 142.824 15.1852 142.275 15.1852C141.341 15.1852 140.59 15.0514 140.021 14.7839C139.453 14.5165 139.046 14.177 138.803 13.7654C138.559 13.3539 138.437 12.9321 138.437 12.5C138.437 12.1708 138.498 11.8519 138.62 11.5432C138.762 11.214 138.975 10.9259 139.26 10.679C139.564 10.4115 139.96 10.2058 140.448 10.0617C140.955 9.89712 141.565 9.81482 142.275 9.81482Z" fill="#FAFAFA"/>
</g>
</svg>
